<svg width="289" height="160" viewBox="0 0 289 160" fill="none" xmlns="http://www.w3.org/2000/svg">
<path d="M24.3223 85.1913C24.3223 83.9788 23.8892 83.0341 23.0232 82.357C22.1729 81.6799 20.6692 80.9792 18.5119 80.2549C16.3547 79.5305 14.5912 78.8298 13.2213 78.1528C8.76513 75.9641 6.53706 72.9566 6.53706 69.1303C6.53706 67.225 7.08817 65.548 8.19039 64.0994C9.30837 62.635 10.883 61.5013 12.9142 60.6982C14.9455 59.8794 17.2286 59.47 19.7638 59.47C22.2359 59.47 24.4482 59.9109 26.4007 60.7927C28.369 61.6745 29.8964 62.9342 30.9828 64.5718C32.0693 66.1936 32.6126 68.0517 32.6126 70.1459H24.3459C24.3459 68.7445 23.9129 67.658 23.0468 66.8864C22.1965 66.1149 21.0392 65.7291 19.5748 65.7291C18.0947 65.7291 16.9216 66.0598 16.0556 66.7211C15.2053 67.3667 14.7801 68.1934 14.7801 69.2011C14.7801 70.0829 15.2525 70.886 16.1973 71.6103C17.142 72.3188 18.8033 73.0589 21.1809 73.8305C23.5586 74.5863 25.5111 75.4051 27.0385 76.2869C30.7545 78.4283 32.6126 81.3807 32.6126 85.144C32.6126 88.1515 31.4788 90.5134 29.2114 92.2298C26.944 93.9461 23.8341 94.8042 19.8819 94.8042C17.0948 94.8042 14.5676 94.3082 12.3001 93.3162C10.0484 92.3085 8.34785 90.9386 7.19839 89.2065C6.06467 87.4587 5.49781 85.4511 5.49781 83.1836H13.8117C13.8117 85.0259 14.2841 86.388 15.2289 87.2697C16.1894 88.1358 17.7404 88.5688 19.8819 88.5688C21.2518 88.5688 22.3304 88.2775 23.1177 87.6949C23.9207 87.0965 24.3223 86.262 24.3223 85.1913ZM55.7514 91.5684C54.0666 93.7256 51.7913 94.8042 48.9255 94.8042C46.1227 94.8042 43.997 93.9933 42.5483 92.3715C41.1154 90.7339 40.399 88.3877 40.399 85.333V68.776H48.3586V85.3802C48.3586 87.5689 49.4215 88.6633 51.5472 88.6633C53.3738 88.6633 54.6728 88.0098 55.4444 86.7029V68.776H63.4513V94.3319H55.9876L55.7514 91.5684ZM86.2595 94.3319C85.976 93.8122 85.7241 93.0486 85.5036 92.0408C84.0393 93.8831 81.9923 94.8042 79.3627 94.8042C76.9535 94.8042 74.9065 94.0799 73.2217 92.6313C71.5369 91.1669 70.6945 89.3325 70.6945 87.128C70.6945 84.3567 71.7179 82.2625 73.7649 80.8453C75.8119 79.4282 78.7879 78.7196 82.693 78.7196H85.1494V77.3733C85.1494 75.0272 84.1337 73.8541 82.1025 73.8541C80.213 73.8541 79.2682 74.7831 79.2682 76.6411H71.3085C71.3085 74.169 72.3557 72.1614 74.4499 70.6183C76.5599 69.0752 79.2446 68.3036 82.504 68.3036C85.7635 68.3036 88.3379 69.0988 90.2275 70.6891C92.117 72.2795 93.0854 74.4603 93.1326 77.2316V88.5452C93.1641 90.8913 93.5263 92.6864 94.2191 93.9303V94.3319H86.2595ZM81.2758 89.1357C82.2678 89.1357 83.0866 88.9231 83.7322 88.4979C84.3935 88.0728 84.8659 87.5925 85.1494 87.0572V82.9711H82.8347C80.0634 82.9711 78.6777 84.215 78.6777 86.7029C78.6777 87.4272 78.9218 88.0177 79.4099 88.4743C79.898 88.9152 80.52 89.1357 81.2758 89.1357ZM110.249 87.9547H124.68V94.3319H101.958V59.9424H110.249V87.9547ZM130.837 81.3177C130.837 78.7669 131.333 76.4994 132.325 74.5154C133.317 72.5157 134.742 70.9804 136.6 69.9097C138.458 68.839 140.639 68.3036 143.142 68.3036C146.968 68.3036 149.984 69.4924 152.188 71.8701C154.393 74.232 155.495 77.4521 155.495 81.5303V81.8137C155.495 85.7975 154.385 88.9625 152.165 91.3086C149.96 93.639 146.968 94.8042 143.189 94.8042C139.552 94.8042 136.631 93.7178 134.427 91.5448C132.222 89.3561 131.033 86.3958 130.86 82.664L130.837 81.3177ZM138.796 81.8137C138.796 84.1756 139.166 85.9077 139.906 87.0099C140.646 88.1122 141.741 88.6633 143.189 88.6633C146.024 88.6633 147.472 86.4824 147.535 82.1208V81.3177C147.535 76.7356 146.071 74.4446 143.142 74.4446C140.481 74.4446 139.04 76.4207 138.82 80.373L138.796 81.8137ZM162.1 81.365C162.1 78.7826 162.526 76.4994 163.376 74.5154C164.226 72.5314 165.446 71.004 167.037 69.9333C168.627 68.8468 170.477 68.3036 172.587 68.3036C175.248 68.3036 177.327 69.2011 178.823 70.9962L179.106 68.776H186.334V93.3635C186.334 95.6152 185.806 97.5677 184.751 99.221C183.712 100.89 182.2 102.166 180.216 103.047C178.232 103.945 175.933 104.394 173.32 104.394C171.446 104.394 169.627 104.039 167.864 103.331C166.116 102.622 164.777 101.701 163.848 100.567L167.179 95.8907C168.659 97.6385 170.611 98.5124 173.036 98.5124C176.563 98.5124 178.327 96.7016 178.327 93.0801V92.277C176.799 93.9618 174.871 94.8042 172.54 94.8042C169.422 94.8042 166.903 93.6154 164.982 91.2378C163.061 88.8444 162.1 85.6479 162.1 81.6484V81.365ZM170.084 81.861C170.084 83.9552 170.477 85.6164 171.265 86.8446C172.052 88.0571 173.154 88.6633 174.571 88.6633C176.288 88.6633 177.539 88.0885 178.327 86.9391V76.1924C177.555 75.0272 176.319 74.4446 174.619 74.4446C173.201 74.4446 172.091 75.0823 171.288 76.3577C170.485 77.6174 170.084 79.4518 170.084 81.861ZM193.884 81.3177C193.884 78.7669 194.38 76.4994 195.372 74.5154C196.364 72.5157 197.789 70.9804 199.647 69.9097C201.505 68.839 203.686 68.3036 206.189 68.3036C210.016 68.3036 213.031 69.4924 215.236 71.8701C217.44 74.232 218.542 77.4521 218.542 81.5303V81.8137C218.542 85.7975 217.432 88.9625 215.212 91.3086C213.008 93.639 210.016 94.8042 206.237 94.8042C202.599 94.8042 199.678 93.7178 197.474 91.5448C195.27 89.3561 194.081 86.3958 193.908 82.664L193.884 81.3177ZM201.844 81.8137C201.844 84.1756 202.214 85.9077 202.954 87.0099C203.694 88.1122 204.788 88.6633 206.237 88.6633C209.071 88.6633 210.52 86.4824 210.583 82.1208V81.3177C210.583 76.7356 209.118 74.4446 206.189 74.4446C203.528 74.4446 202.088 76.4207 201.867 80.373L201.844 81.8137Z" fill="#354446"/>
<path d="M234.582 95.6542H225.61L227.879 82.8063H236.851L237.985 76.1752H229.116L231.385 63.3273H240.254L243.658 43.8483H257.374L253.971 63.3273H262.325L265.728 43.8483H279.445L276.041 63.3273H285.014L282.745 76.1752H273.772L272.638 82.8063H281.507L279.238 95.6542H270.369L266.966 115.133H253.249L256.652 95.6542H248.299L244.895 115.133H231.179L234.582 95.6542ZM258.921 82.8063L260.056 76.1752H251.702L250.568 82.8063H258.921Z" fill="#FFD658"/>
</svg>
