<svg width="25" height="28" viewBox="0 0 25 28" fill="none" xmlns="http://www.w3.org/2000/svg">
<path d="M17.6439 4.73773C17.6439 4.58974 17.59 4.4478 17.4941 4.34315C17.3982 4.2385 17.2681 4.17971 17.1325 4.17971H14.5755C13.2879 4.10972 12.0273 4.59866 11.069 5.5397C10.1108 6.48073 9.5328 7.79736 9.46143 9.20191V12.2152H6.9044C6.76876 12.2152 6.63868 12.274 6.54278 12.3787C6.44687 12.4833 6.39299 12.6252 6.39299 12.7732V15.675C6.39299 15.823 6.44687 15.9649 6.54278 16.0695C6.63868 16.1742 6.76876 16.233 6.9044 16.233H9.46143V23.7105C9.46143 23.8585 9.51531 24.0004 9.61121 24.1051C9.70712 24.2097 9.8372 24.2685 9.97283 24.2685H13.0413C13.1769 24.2685 13.307 24.2097 13.4029 24.1051C13.4988 24.0004 13.5527 23.8585 13.5527 23.7105V16.233H16.2324C16.3462 16.2348 16.4572 16.1951 16.548 16.1203C16.6387 16.0456 16.7041 15.9399 16.7336 15.82L17.47 12.9183C17.4904 12.8359 17.4931 12.7494 17.478 12.6656C17.463 12.5819 17.4304 12.503 17.383 12.4351C17.3356 12.3671 17.2745 12.312 17.2045 12.2739C17.1345 12.2358 17.0573 12.2157 16.9791 12.2152H13.5527V9.20191C13.5781 8.92566 13.697 8.66968 13.8861 8.48395C14.0753 8.29822 14.321 8.19608 14.5755 8.19747H17.1325C17.2681 8.19747 17.3982 8.13868 17.4941 8.03403C17.59 7.92938 17.6439 7.78744 17.6439 7.63944V4.73773Z" fill="#0A66C2"/>
</svg>
