<svg width="26" height="28" viewBox="0 0 26 28" fill="none" xmlns="http://www.w3.org/2000/svg">
<path d="M21.4982 23.654H17.8611V17.4387C17.8611 15.9566 17.8368 14.0487 15.9694 14.0487C14.075 14.0487 13.7851 15.6636 13.7851 17.3308V23.6536H10.1481V10.8725H13.6397V12.6192H13.6886C14.038 11.9672 14.5429 11.4309 15.1496 11.0673C15.7563 10.7037 16.442 10.5265 17.1337 10.5545C20.8201 10.5545 21.4997 13.2004 21.4997 16.6425L21.4982 23.654ZM6.04404 9.1255C4.87832 9.12571 3.93315 8.09469 3.93296 6.82272C3.93277 5.55074 4.87756 4.51941 6.04327 4.5192C7.20899 4.51889 8.15416 5.5499 8.15436 6.82188C8.15446 7.43271 7.93218 8.01857 7.53642 8.45058C7.14067 8.88259 6.60384 9.12536 6.04404 9.1255ZM7.86266 23.6541H4.22168V10.8725H7.86257V23.654L7.86266 23.6541ZM23.3115 0.833431H2.39404C1.40543 0.821294 0.594693 1.68543 0.582611 2.76415V25.6835C0.594309 26.7627 1.40495 27.6277 2.39395 27.6164H23.3115C24.3026 27.6298 25.1164 26.7648 25.1301 25.6835V2.76237C25.116 1.68156 24.3021 0.817528 23.3115 0.831653" fill="#0A66C2"/>
</svg>
