<svg width="25" height="28" viewBox="0 0 25 28" fill="none" xmlns="http://www.w3.org/2000/svg">
<path d="M23.7396 10.2762C23.046 10.6264 22.3525 10.8365 21.5328 10.9766C22.2894 10.4163 22.9199 9.64577 23.2352 8.66514C22.4786 9.15545 21.6589 9.50568 20.8393 9.71581C20.1457 8.87528 19.1369 8.38496 18.0651 8.38496C15.9844 8.38496 14.219 10.2762 14.219 12.6577C14.219 13.0079 14.2821 13.2881 14.3451 13.6383C11.1926 13.4982 8.35535 11.7471 6.46385 9.2255C6.1486 9.71581 5.95945 10.4163 5.95945 11.1867C5.95945 12.6577 6.653 13.9885 7.6618 14.689C7.0313 14.689 6.46385 14.4788 5.95945 14.1286V14.1987C5.95945 16.23 7.2835 17.9811 9.0489 18.3313C8.73365 18.4013 8.4184 18.4714 8.0401 18.4714C7.7879 18.4714 7.5357 18.4714 7.34655 18.4013C7.85095 20.0824 9.23805 21.3432 10.9404 21.3432C9.61635 22.4639 7.97705 23.1644 6.21165 23.1644C5.8964 23.1644 5.58115 23.1644 5.32895 23.0943C6.84215 24.4252 8.85975 25.1256 11.0035 25.1256C18.002 25.1256 21.8481 18.6815 21.8481 13.078V12.5176C22.6047 11.8872 23.2352 11.1867 23.7396 10.2762Z" fill="#0A66C2"/>
</svg>
