<svg width="30" height="30" viewBox="0 0 30 30" fill="none" xmlns="http://www.w3.org/2000/svg">
<path fill-rule="evenodd" clip-rule="evenodd" d="M2.5 12.5C2.5 11.8096 3.05964 11.25 3.75 11.25H26.25C26.9404 11.25 27.5 11.8096 27.5 12.5C27.5 13.1904 26.9404 13.75 26.25 13.75H3.75C3.05964 13.75 2.5 13.1904 2.5 12.5Z" fill="black"/>
<path fill-rule="evenodd" clip-rule="evenodd" d="M2.5 7.5C2.5 6.80964 3.05964 6.25 3.75 6.25H26.25C26.9404 6.25 27.5 6.80964 27.5 7.5C27.5 8.19036 26.9404 8.75 26.25 8.75H3.75C3.05964 8.75 2.5 8.19036 2.5 7.5Z" fill="black"/>
<path fill-rule="evenodd" clip-rule="evenodd" d="M2.5 17.5C2.5 16.8096 3.05964 16.25 3.75 16.25H26.25C26.9404 16.25 27.5 16.8096 27.5 17.5C27.5 18.1904 26.9404 18.75 26.25 18.75H3.75C3.05964 18.75 2.5 18.1904 2.5 17.5Z" fill="black"/>
<path fill-rule="evenodd" clip-rule="evenodd" d="M2.5 22.5C2.5 21.8096 3.05964 21.25 3.75 21.25H26.25C26.9404 21.25 27.5 21.8096 27.5 22.5C27.5 23.1904 26.9404 23.75 26.25 23.75H3.75C3.05964 23.75 2.5 23.1904 2.5 22.5Z" fill="black"/>
</svg>
