<svg width="77" height="31" viewBox="0 0 77 31" fill="none" xmlns="http://www.w3.org/2000/svg">
<path d="M6.33 18.478H17.584V23H0.482V0.559999H6.33V18.478ZM28.4199 5.66C30.2106 5.66 31.7746 6.01133 33.1119 6.714C34.4719 7.394 35.5259 8.40267 36.2739 9.74C37.0446 11.0547 37.4299 12.6413 37.4299 14.5C37.4299 16.3587 37.0446 17.9567 36.2739 19.294C35.5259 20.6087 34.4719 21.6173 33.1119 22.32C31.7746 23 30.2106 23.34 28.4199 23.34C26.6746 23.34 25.1219 23 23.7619 22.32C22.4019 21.6173 21.3366 20.6087 20.5659 19.294C19.8179 17.9567 19.4439 16.3587 19.4439 14.5C19.4439 12.6413 19.8179 11.0547 20.5659 9.74C21.3366 8.40267 22.4019 7.394 23.7619 6.714C25.1219 6.01133 26.6746 5.66 28.4199 5.66ZM28.4199 9.774C27.7626 9.774 27.1959 9.93267 26.7199 10.25C26.2439 10.5673 25.8812 11.0773 25.6319 11.78C25.3826 12.4827 25.2579 13.3893 25.2579 14.5C25.2579 15.6107 25.3826 16.5173 25.6319 17.22C25.8812 17.9 26.2439 18.41 26.7199 18.75C27.1959 19.0673 27.7626 19.226 28.4199 19.226C29.0999 19.226 29.6779 19.0673 30.1539 18.75C30.6299 18.41 30.9926 17.9 31.2419 17.22C31.4912 16.5173 31.6159 15.6107 31.6159 14.5C31.6159 13.3893 31.4912 12.4827 31.2419 11.78C30.9926 11.0773 30.6299 10.5673 30.1539 10.25C29.6779 9.93267 29.0999 9.774 28.4199 9.774ZM56.905 1.444L57.381 5.32C57.245 5.27467 57.109 5.252 56.973 5.252C56.837 5.22933 56.701 5.218 56.565 5.218C55.5677 5.218 54.8197 5.46733 54.321 5.966C53.845 6.442 53.607 7.04267 53.607 7.768L51.567 7.02C51.567 6.09067 51.737 5.19533 52.077 4.334C52.417 3.47267 52.9383 2.77 53.641 2.226C54.3663 1.682 55.273 1.41 56.361 1.41C56.429 1.41 56.5083 1.41 56.599 1.41C56.7123 1.41 56.8143 1.42133 56.905 1.444ZM51.057 19.226C53.029 19.226 54.5363 19.6453 55.579 20.484C56.6443 21.3 57.177 22.4787 57.177 24.02C57.177 25.4253 56.7917 26.5927 56.021 27.522C55.2503 28.4513 54.1623 29.1427 52.757 29.596C51.3743 30.072 49.731 30.31 47.827 30.31C44.7443 30.31 42.523 29.9247 41.163 29.154C39.803 28.3833 39.123 27.3407 39.123 26.026C39.123 25.074 39.5083 24.3033 40.279 23.714C41.0497 23.1247 42.3303 22.8073 44.121 22.762L43.985 23.306C42.6023 23.1247 41.571 22.7167 40.891 22.082C40.211 21.4473 39.871 20.586 39.871 19.498C39.871 18.41 40.3017 17.526 41.163 16.846C42.0243 16.166 43.169 15.792 44.597 15.724L46.705 16.71H46.161C45.277 16.7553 44.6537 16.9027 44.291 17.152C43.9283 17.4013 43.747 17.7073 43.747 18.07C43.747 18.4553 43.9057 18.75 44.223 18.954C44.5403 19.1353 45.0163 19.226 45.651 19.226H51.057ZM47.861 26.57C48.949 26.57 49.8443 26.4907 50.547 26.332C51.2723 26.196 51.8163 25.992 52.179 25.72C52.5417 25.4707 52.723 25.176 52.723 24.836C52.723 24.496 52.5983 24.224 52.349 24.02C52.0997 23.8387 51.6463 23.748 50.989 23.748H44.903C44.4723 23.748 44.121 23.8613 43.849 24.088C43.5997 24.3147 43.475 24.598 43.475 24.938C43.475 25.4593 43.8603 25.856 44.631 26.128C45.4017 26.4227 46.4783 26.57 47.861 26.57ZM48.065 5.66C49.7877 5.66 51.261 5.88667 52.485 6.34C53.709 6.79333 54.6383 7.45067 55.273 8.312C55.9303 9.15067 56.259 10.1933 56.259 11.44C56.259 12.664 55.9303 13.7067 55.273 14.568C54.6383 15.4293 53.709 16.0867 52.485 16.54C51.261 16.9707 49.7877 17.186 48.065 17.186C45.3677 17.186 43.3163 16.6873 41.911 15.69C40.5283 14.6927 39.837 13.276 39.837 11.44C39.837 10.1933 40.1543 9.15067 40.789 8.312C41.4463 7.45067 42.387 6.79333 43.611 6.34C44.835 5.88667 46.3197 5.66 48.065 5.66ZM48.065 8.958C47.317 8.958 46.705 9.17333 46.229 9.604C45.7757 10.0347 45.549 10.6467 45.549 11.44C45.549 12.2107 45.7757 12.8113 46.229 13.242C46.705 13.6727 47.317 13.888 48.065 13.888C48.7903 13.888 49.391 13.6727 49.867 13.242C50.343 12.8113 50.581 12.2107 50.581 11.44C50.581 10.6467 50.343 10.0347 49.867 9.604C49.391 9.17333 48.7903 8.958 48.065 8.958ZM67.5664 5.66C69.3571 5.66 70.9211 6.01133 72.2584 6.714C73.6184 7.394 74.6724 8.40267 75.4204 9.74C76.1911 11.0547 76.5764 12.6413 76.5764 14.5C76.5764 16.3587 76.1911 17.9567 75.4204 19.294C74.6724 20.6087 73.6184 21.6173 72.2584 22.32C70.9211 23 69.3571 23.34 67.5664 23.34C65.8211 23.34 64.2684 23 62.9084 22.32C61.5484 21.6173 60.4831 20.6087 59.7124 19.294C58.9644 17.9567 58.5904 16.3587 58.5904 14.5C58.5904 12.6413 58.9644 11.0547 59.7124 9.74C60.4831 8.40267 61.5484 7.394 62.9084 6.714C64.2684 6.01133 65.8211 5.66 67.5664 5.66ZM67.5664 9.774C66.9091 9.774 66.3424 9.93267 65.8664 10.25C65.3904 10.5673 65.0277 11.0773 64.7784 11.78C64.5291 12.4827 64.4044 13.3893 64.4044 14.5C64.4044 15.6107 64.5291 16.5173 64.7784 17.22C65.0277 17.9 65.3904 18.41 65.8664 18.75C66.3424 19.0673 66.9091 19.226 67.5664 19.226C68.2464 19.226 68.8244 19.0673 69.3004 18.75C69.7764 18.41 70.1391 17.9 70.3884 17.22C70.6377 16.5173 70.7624 15.6107 70.7624 14.5C70.7624 13.3893 70.6377 12.4827 70.3884 11.78C70.1391 11.0773 69.7764 10.5673 69.3004 10.25C68.8244 9.93267 68.2464 9.774 67.5664 9.774Z" fill="#24C250"/>
</svg>
